<svg width="1440" height="1024" viewBox="0 0 1440 1024" fill="none" xmlns="http://www.w3.org/2000/svg">
<g clip-path="url(#clip0_3_909)">
<rect width="1440" height="1024" fill="black"/>
<circle opacity="0.8" cx="-0.5" cy="151.5" r="422.5" fill="url(#paint0_radial_3_909)"/>
<ellipse opacity="0.8" cx="60.5" cy="72" rx="253.5" ry="254" fill="url(#paint1_radial_3_909)"/>
<ellipse opacity="0.8" cx="1439.5" cy="577" rx="253.5" ry="254" fill="url(#paint2_radial_3_909)"/>
<rect opacity="0.1" x="55" y="-155" width="311" height="311" fill="#262739"/>
<rect opacity="0.1" x="55" y="58" width="311" height="311" fill="#262739"/>
<rect opacity="0.1" x="55" y="12" width="311" height="311" fill="#262739"/>
<rect opacity="0.1" x="-169" width="311" height="311" fill="#262739"/>
<rect opacity="0.1" x="243" y="-155" width="311" height="311" fill="#262739"/>
<rect opacity="0.1" x="-181" y="-155" width="311" height="311" fill="#262739"/>
<rect opacity="0.1" x="-156" y="232" width="311" height="311" fill="#262739"/>
<ellipse opacity="0.8" cx="-0.5" cy="1023.5" rx="326.5" ry="308.5" fill="url(#paint3_radial_3_909)"/>
</g>
<defs>
<radialGradient id="paint0_radial_3_909" cx="0" cy="0" r="1" gradientUnits="userSpaceOnUse" gradientTransform="translate(-0.5 151.5) rotate(90) scale(478.261)">
<stop stop-color="#733FF3" stop-opacity="0.23"/>
<stop offset="1" stop-color="#733FF3" stop-opacity="0"/>
</radialGradient>
<radialGradient id="paint1_radial_3_909" cx="0" cy="0" r="1" gradientUnits="userSpaceOnUse" gradientTransform="translate(60.5 72) rotate(90) scale(287.523 286.957)">
<stop stop-color="#F34F3F" stop-opacity="0.23"/>
<stop offset="1" stop-color="#F34F3F" stop-opacity="0"/>
</radialGradient>
<radialGradient id="paint2_radial_3_909" cx="0" cy="0" r="1" gradientUnits="userSpaceOnUse" gradientTransform="translate(1439.5 577) rotate(90) scale(287.523 286.957)">
<stop stop-color="#F34F3F" stop-opacity="0.23"/>
<stop offset="1" stop-color="#F34F3F" stop-opacity="0"/>
</radialGradient>
<radialGradient id="paint3_radial_3_909" cx="0" cy="0" r="1" gradientUnits="userSpaceOnUse" gradientTransform="translate(-0.5 1023.5) rotate(90) scale(349.216 369.591)">
<stop stop-color="#F34F3F" stop-opacity="0.23"/>
<stop offset="1" stop-color="#F34F3F" stop-opacity="0"/>
</radialGradient>
<clipPath id="clip0_3_909">
<rect width="1440" height="1024" fill="white"/>
</clipPath>
</defs>
</svg>
